<svg version="1.1" id="Layer_1" xmlns="http://www.w3.org/2000/svg" xmlns:xlink="http://www.w3.org/1999/xlink" x="0px" y="0px"
	 width="100%" viewBox="0 0 1024 672" enable-background="new 0 0 1024 672" xml:space="preserve">
<path fill="#000000" opacity="1.000000" stroke="none" 
	d="
M510.000000,382.074677 
	C458.510162,382.048553 407.520325,382.001831 356.530487,382.016418 
	C346.482880,382.019287 338.256287,378.810791 333.087341,369.659241 
	C331.327332,366.543182 330.367462,363.180542 330.349945,359.638062 
	C330.183319,325.987427 330.037872,292.336548 329.967865,258.685577 
	C329.951416,250.791534 334.843567,247.989655 341.790009,251.699112 
	C345.584808,253.725555 349.487823,253.488419 354.119659,250.910156 
	C351.798462,242.062607 355.318024,233.583420 356.042114,224.909760 
	C356.374084,220.932800 360.236969,221.863953 362.908661,221.810059 
	C369.443726,221.678253 369.748932,222.067459 369.346832,228.423294 
	C369.105042,232.245560 368.803894,236.064529 368.605713,239.888947 
	C368.171295,248.272308 368.191101,248.273331 362.825256,254.373734 
	C371.117676,254.912918 378.720154,255.098007 387.128845,254.403458 
	C378.410217,245.433212 382.986633,234.591354 380.854828,225.031158 
	C380.634308,224.042145 381.192078,223.134109 382.110870,222.496094 
	C386.295441,219.590271 393.919739,222.308975 394.493683,227.237335 
	C395.405396,235.066559 398.622009,242.753799 396.048798,250.926086 
	C400.177795,253.447510 404.214478,253.945801 408.306061,251.278183 
	C413.274048,248.039169 419.459167,250.983215 419.871765,257.009460 
	C420.155792,261.157471 419.932373,265.337891 420.026703,269.501770 
	C420.152344,275.048370 420.928650,275.535767 425.829865,273.376160 
	C431.314514,270.959503 436.776367,268.487701 442.305481,266.177155 
	C444.278076,265.352844 445.556274,264.170288 446.449493,262.191956 
	C448.346191,257.990906 452.601898,255.563934 456.222687,257.143677 
	C463.465454,260.303650 469.981781,257.534271 476.729828,256.544800 
	C482.170105,255.747055 487.577179,254.596329 493.081055,254.615692 
	C500.023102,254.640137 505.892700,252.325775 511.221252,246.762390 
	C507.752899,242.278564 504.053345,237.477509 500.334351,232.691544 
	C491.791107,221.697098 484.376984,210.130219 481.106628,196.324417 
	C478.607483,185.774384 479.502991,175.790573 485.700897,166.671463 
	C493.458801,155.257202 507.819275,150.225800 521.928711,153.802979 
	C534.875305,157.085327 543.875000,167.877274 545.466003,181.758438 
	C547.386902,198.518280 539.910034,212.205032 531.051086,225.286621 
	C526.037903,232.689316 520.188477,239.525742 514.879761,246.404648 
	C519.370117,253.097275 525.964111,254.309128 533.067078,254.695450 
	C541.390015,255.148102 549.567749,256.755707 557.684692,258.601196 
	C560.331177,259.202911 562.656921,259.325745 565.348328,258.071838 
	C571.237610,255.328094 575.573914,256.974915 578.782104,262.531830 
	C579.364441,263.540497 579.712708,264.733551 580.873413,265.230835 
	C588.626892,268.552490 596.578125,271.390198 604.362976,275.797668 
	C606.537537,269.736908 605.590088,264.385010 605.648071,259.161316 
	C605.743835,250.529541 610.813354,247.326752 618.179382,251.507263 
	C620.781799,252.984253 623.513855,253.384293 626.369812,252.565903 
	C628.476929,251.962097 629.964050,250.741791 629.599792,248.250931 
	C628.463318,240.480042 631.225586,233.100220 632.089417,225.545029 
	C632.767212,219.616669 638.385681,222.253159 641.935669,221.843704 
	C645.416687,221.442230 645.820618,223.864944 645.533691,226.803299 
	C645.145569,230.777069 644.926758,234.792267 645.013489,238.781494 
	C645.136475,244.440262 644.750793,249.784271 638.193909,253.832062 
	C647.466370,255.265671 655.288574,255.199905 664.275146,254.060623 
	C658.581360,250.329391 657.558411,245.635315 657.734131,240.189316 
	C657.883850,235.552368 657.407898,230.875397 656.931946,226.244583 
	C656.576782,222.789062 657.728882,221.364578 661.292053,221.408737 
	C669.734802,221.513397 670.093323,221.569473 671.114014,230.173645 
	C671.925903,237.016724 674.714783,243.779678 672.096680,250.905853 
	C676.211304,253.539581 680.274414,253.898590 684.374084,251.383301 
	C689.624634,248.161865 694.898926,250.902466 694.975342,257.253296 
	C695.135559,270.581818 695.054810,283.913513 695.039062,297.243835 
	C695.016602,316.231415 694.985779,335.218994 694.906555,354.206390 
	C694.889221,358.366516 694.799988,362.565399 693.351196,366.534119 
	C689.720459,376.480103 681.631836,381.859955 669.467407,381.937408 
	C644.973206,382.093353 620.477478,382.025146 595.982422,382.039948 
	C567.488281,382.057129 538.994141,382.064117 510.000000,382.074677 
M584.834229,319.686981 
	C561.946411,309.594666 537.859741,304.537811 512.982178,304.683136 
	C479.017822,304.881500 447.109528,313.390198 418.115234,331.575195 
	C415.160004,333.428711 412.189392,334.193909 408.717041,334.161377 
	C393.723389,334.020721 378.726776,334.173340 363.733765,334.001617 
	C359.705658,333.955475 357.908020,335.180969 358.247955,339.421387 
	C358.539948,343.063812 358.303772,346.747498 358.326660,350.412781 
	C358.382294,359.325989 360.690430,361.667206 369.568329,361.667053 
	C464.536194,361.665222 559.504028,361.651367 654.471924,361.638062 
	C655.804565,361.637878 657.144226,361.683929 658.468567,361.569092 
	C664.252197,361.067596 666.817566,358.392792 666.926514,352.587799 
	C667.007751,348.258057 666.649719,343.907532 666.945435,339.597717 
	C667.255920,335.072693 665.305481,333.885864 661.086975,333.952301 
	C647.761353,334.162140 634.426697,333.874725 621.104004,334.165894 
	C614.882202,334.301880 609.502197,332.935944 604.169128,329.585602 
	C598.274536,325.882385 591.765015,323.157867 584.834229,319.686981 
M484.324768,263.019073 
	C479.079346,263.920197 473.822937,264.763702 468.595093,265.757294 
	C467.014404,266.057709 465.562622,266.537628 464.322601,267.988525 
	C459.606354,273.506836 458.573395,279.816742 458.945801,286.842468 
	C459.186066,291.375000 460.622772,292.235260 464.774445,290.977173 
	C475.458557,287.739746 486.342712,285.583191 497.524475,284.604248 
	C512.256775,283.314453 509.418640,285.905304 509.693085,271.829803 
	C509.837067,264.445801 506.034576,260.910339 498.600189,261.402313 
	C494.120453,261.698761 489.664093,262.348358 484.324768,263.019073 
M532.642090,262.063782 
	C530.333313,261.818115 528.029297,261.433777 525.714844,261.354004 
	C519.855164,261.152161 516.350220,264.453217 516.236084,270.207275 
	C516.173462,273.362244 516.281128,276.520294 516.237305,279.675934 
	C516.201477,282.251465 517.210938,283.763397 519.950195,283.915497 
	C534.270996,284.710602 548.259521,287.449280 562.074890,291.183014 
	C563.826477,291.656403 565.646118,291.837372 565.819702,289.431580 
	C566.153931,284.798309 567.306213,279.713196 565.486084,275.623108 
	C563.498413,271.156769 561.161133,266.160187 554.685120,265.351807 
	C547.622803,264.470245 540.656067,262.763824 532.642090,262.063782 
M603.837708,309.963623 
	C605.506958,309.994354 605.679260,308.780853 605.682983,307.589478 
	C605.703674,300.936218 605.663940,294.282745 605.673889,287.629395 
	C605.676697,285.743195 604.731506,284.521637 603.166504,283.642273 
	C595.757812,279.479614 588.050232,275.975433 580.096069,272.984894 
	C577.920654,272.166992 576.179382,272.722565 574.576599,274.103546 
	C572.262024,276.097748 572.056152,293.010406 574.331848,295.137207 
	C574.920776,295.687622 575.712830,296.071320 576.473145,296.380096 
	C585.736023,300.142059 594.509521,304.873840 603.837708,309.963623 
M420.176575,287.248474 
	C420.122681,293.391205 419.985321,299.534729 420.046112,305.676331 
	C420.082825,309.388275 421.749329,310.393616 425.159821,308.470734 
	C430.072357,305.700958 434.822021,302.042938 440.131073,300.698853 
	C451.606812,297.793518 454.007874,290.564423 452.788727,280.088593 
	C452.032898,273.593903 449.402863,271.217804 443.505981,273.748535 
	C437.104462,276.495819 430.817932,279.514832 424.519501,282.496094 
	C422.742615,283.337189 420.852386,284.198395 420.176575,287.248474 
M511.864075,199.751862 
	C519.242676,199.662323 523.820740,196.820175 526.002441,190.974533 
	C527.926086,185.820328 526.393127,179.576950 522.301453,175.901215 
	C518.093933,172.121429 511.891479,171.249908 506.957855,173.745178 
	C501.995728,176.254883 498.585083,182.328430 499.359222,187.800034 
	C500.316010,194.562622 504.460327,198.367126 511.864075,199.751862 
M347.253052,296.428162 
	C347.256134,306.941650 347.458893,307.098907 357.892731,304.672485 
	C358.376434,304.559998 358.854187,304.418335 359.341248,304.324371 
	C363.175934,303.584686 364.943146,301.553955 364.623291,297.382019 
	C364.270050,292.774261 364.455200,288.115204 364.576630,283.482971 
	C364.911987,270.692566 364.927338,270.757446 352.125031,271.277405 
	C348.753723,271.414307 347.291962,272.705109 347.315430,276.045380 
	C347.360870,282.513245 347.284149,288.981964 347.253052,296.428162 
M678.041260,298.336365 
	C677.992676,290.855865 677.951843,283.375275 677.890747,275.894867 
	C677.871948,273.592804 677.528625,271.167114 674.545837,271.440765 
	C670.129456,271.846008 665.299927,269.332245 661.360046,273.107788 
	C660.989197,273.463196 661.085999,274.381592 661.086914,275.038483 
	C661.097900,283.183838 661.128845,291.329163 661.161072,299.474518 
	C661.168701,301.403259 661.477234,303.182007 663.722473,303.763977 
	C668.178772,304.919067 672.640625,306.053711 677.409241,305.929474 
	C678.389893,303.561462 677.964478,301.386963 678.041260,298.336365 
M355.061707,313.696625 
	C350.481018,314.536224 345.900360,315.375824 341.319672,316.215424 
	C356.533051,316.878387 371.671143,316.858917 386.809204,316.883820 
	C402.092438,316.908966 402.092285,316.928253 401.601135,301.559082 
	C401.585205,301.060181 401.584686,300.560669 401.563263,300.062042 
	C401.425659,296.862000 400.004303,295.838654 397.047028,297.390747 
	C392.922699,299.555328 388.796173,301.715668 384.664154,303.865509 
	C383.411163,304.517426 382.722168,305.454742 382.359680,306.890289 
	C380.415283,314.590424 375.162048,317.790161 367.754456,314.266327 
	C363.431458,312.209900 359.896729,312.705811 355.061707,313.696625 
M631.640564,316.852417 
	C649.698975,316.852417 667.757446,316.852417 685.815857,316.852417 
	C679.192993,315.141663 672.542236,314.060822 665.876953,313.078033 
	C664.595276,312.889069 663.089722,312.695190 661.974243,313.173035 
	C657.770203,314.973846 653.444214,314.136993 649.153259,314.157898 
	C645.203674,314.177155 642.783813,312.588013 642.845581,308.272736 
	C642.864563,306.948395 642.925903,305.391235 641.618713,304.657288 
	C636.334167,301.690094 630.978333,298.849884 624.946167,295.582153 
	C623.399231,303.340302 624.713684,310.036469 623.777161,316.850952 
	C626.385864,316.850952 628.544128,316.850952 631.640564,316.852417 
M638.930237,294.457458 
	C641.078613,295.534241 642.823242,295.834778 642.804443,292.526642 
	C642.771423,286.712463 642.748169,280.898102 642.745544,275.083832 
	C642.744080,271.902557 640.679810,270.862091 638.130615,271.391663 
	C633.497498,272.354156 627.848755,268.462494 624.240295,274.210327 
	C624.007996,274.580322 624.156677,275.188385 624.124878,275.685516 
	C623.438660,286.418976 623.695374,286.862274 633.385376,291.673523 
	C635.021667,292.485962 636.657837,293.298584 638.930237,294.457458 
M385.674713,294.628571 
	C389.941101,292.401031 394.282837,290.304138 398.448242,287.901520 
	C401.386963,286.206451 402.381439,274.747070 399.917633,272.471619 
	C399.349945,271.947296 398.454681,271.524933 397.696533,271.501831 
	C393.712860,271.380493 389.724701,271.370850 385.738342,271.387421 
	C383.653625,271.396088 382.806824,272.707581 382.761139,274.623169 
	C382.630585,280.100159 382.440186,285.578583 382.479309,291.054962 
	C382.490723,292.652100 382.008575,295.070251 385.674713,294.628571 
M496.086426,372.898407 
	C506.777771,374.960266 517.554626,373.427216 528.289856,373.622437 
	C529.537170,373.645111 530.629395,372.780792 530.266479,371.341919 
	C529.807678,369.522339 528.141479,369.433228 526.629639,369.427002 
	C517.484680,369.389404 508.339386,369.363464 499.194427,369.394897 
	C497.340820,369.401276 495.320862,369.466583 496.086426,372.898407 
M671.171448,355.689331 
	C671.038635,356.932922 670.905823,358.176544 670.773010,359.420135 
	C673.757385,351.241791 672.413879,342.937500 672.780518,334.677032 
	C672.255737,334.665619 671.730957,334.654175 671.206177,334.642761 
	C671.206177,341.384155 671.206177,348.125580 671.171448,355.689331 
M354.022095,336.758118 
	C353.906860,336.238342 353.791595,335.718567 353.676361,335.198792 
	C353.996338,343.989777 350.937805,353.094177 355.509613,361.395691 
	C352.415253,353.642761 354.749176,345.432465 354.022095,336.758118 
z"/>
<path fill="#000000" opacity="1.000000" stroke="none" 
	d="
M684.131104,230.796265 
	C683.629700,229.692291 683.310669,228.922638 682.956726,228.169373 
	C680.372314,222.669373 680.369629,222.669067 686.000244,220.850525 
	C687.125488,220.487122 688.244690,220.127106 688.448486,217.732330 
	C663.729797,217.063126 639.117371,217.301926 613.711670,217.521744 
	C614.605530,219.192993 614.718262,219.788727 615.061279,219.987961 
	C621.085632,223.487183 621.127502,223.493942 617.905273,230.167130 
	C616.013733,234.084518 614.351929,238.063904 613.655029,242.388458 
	C612.714722,248.223862 607.073120,251.377991 600.318481,249.845383 
	C593.595581,248.319992 590.119995,242.884003 592.220032,236.897263 
	C592.986267,234.713104 594.160339,232.658768 595.268127,230.610031 
	C599.699524,222.414719 604.273132,214.294632 608.587097,206.038528 
	C610.088440,203.165253 612.024048,201.947525 615.271179,201.956924 
	C638.765259,202.024902 662.259644,201.976364 685.753967,201.945145 
	C688.217773,201.941879 690.313721,202.393219 691.640381,204.828918 
	C697.283325,215.188828 702.990845,225.513596 708.690308,235.842621 
	C710.667480,239.425781 710.617310,242.867798 707.933533,246.054794 
	C705.117615,249.398727 698.507446,251.019394 694.093079,249.521942 
	C690.214722,248.206299 688.072632,245.680496 688.032410,241.379364 
	C687.996826,237.587326 685.676941,234.507370 684.131104,230.796265 
z"/>
<path fill="#000000" opacity="1.000000" stroke="none" 
	d="
M382.000000,217.328003 
	C367.423767,217.328781 353.347565,217.328781 339.618622,217.328781 
	C338.921478,219.188095 339.411407,220.080490 340.140228,220.292160 
	C346.018066,221.999130 344.536072,225.196915 342.454620,229.185516 
	C340.007263,233.875290 337.603455,238.691513 337.254730,244.184326 
	C337.196869,245.095932 336.691742,246.124481 336.082733,246.831482 
	C332.855408,250.578079 325.235687,251.128647 320.310516,248.066422 
	C315.685699,245.190948 314.190430,240.424408 317.034943,235.000320 
	C322.439697,224.694366 328.267303,214.610580 333.882385,204.414200 
	C335.038452,202.314835 336.927826,202.050140 338.995148,202.047821 
	C362.817047,202.021042 386.638977,202.014801 410.460724,201.940033 
	C413.296295,201.931137 415.092896,203.071518 416.429077,205.553497 
	C421.622162,215.199768 426.952393,224.772079 432.189301,234.394928 
	C434.518402,238.674713 435.194061,242.927979 431.309601,246.762238 
	C427.631561,250.392776 420.839264,251.306915 416.412964,248.774429 
	C414.503174,247.681763 412.485901,246.267212 412.367798,243.977753 
	C412.046021,237.740158 408.859589,232.599030 406.482635,227.136063 
	C404.410248,222.373047 404.813263,221.710587 410.230927,221.004257 
	C412.505280,220.707733 412.505280,220.707718 415.715240,217.327225 
	C403.909271,217.327225 393.204651,217.327225 382.000000,217.328003 
z"/>
<path fill="#000000" opacity="1.000000" stroke="none" 
	d="
M694.902954,410.793823 
	C706.370483,417.511627 707.379944,432.181427 697.049194,440.073578 
	C694.231567,442.226135 694.218506,443.915741 695.840576,446.702087 
	C698.814270,451.810028 702.704285,456.436462 704.647156,462.159119 
	C696.669006,465.216278 691.874634,463.709229 687.826538,457.073273 
	C685.832642,453.804565 683.755066,450.580505 681.911560,447.228333 
	C680.254028,444.214355 677.672180,443.622467 674.696594,444.184265 
	C671.296326,444.826294 672.401306,447.730316 672.230591,449.869934 
	C672.072144,451.855133 672.208191,453.863617 672.209595,455.861847 
	C672.214233,462.678253 667.509399,465.769348 661.280396,463.092865 
	C659.509094,462.331757 659.545654,460.890991 659.545715,459.356628 
	C659.546204,443.715881 659.535950,428.075104 659.512573,412.434357 
	C659.509888,410.665527 659.598267,408.815186 661.901550,408.834198 
	C671.866333,408.916412 681.862366,407.824707 691.784912,409.505890 
	C692.742371,409.668091 693.628540,410.250946 694.902954,410.793823 
M683.801758,419.426727 
	C681.152649,419.413757 678.503540,419.389648 675.854431,419.391632 
	C674.013367,419.393005 672.791382,420.029572 672.303772,422.068085 
	C670.298889,430.450470 672.223328,433.043793 680.597839,432.984406 
	C681.260193,432.979706 681.922607,432.972351 682.584961,432.965057 
	C686.772339,432.918945 690.242126,431.744873 690.884766,426.953796 
	C691.506226,422.320923 688.601562,420.423309 683.801758,419.426727 
z"/>
<path fill="#000000" opacity="1.000000" stroke="none" 
	d="
M544.868042,437.918243 
	C548.257874,429.547668 551.746338,421.617584 554.661865,413.482239 
	C556.360535,408.742493 559.677185,408.648285 563.704224,408.577148 
	C567.556824,408.509155 570.207336,409.145905 571.868286,413.252899 
	C577.917053,428.209869 584.322510,443.022491 590.577393,457.896301 
	C591.143494,459.242462 592.074463,460.525299 591.610901,462.115692 
	C584.259338,465.325836 579.336487,463.679688 576.430359,456.787811 
	C575.145142,453.740082 573.382324,452.322571 569.953552,452.834015 
	C567.673157,453.174164 565.288452,453.087585 562.976196,452.890228 
	C556.437134,452.332062 550.531799,452.611053 548.967590,460.859894 
	C548.668762,462.435760 547.211487,463.290405 545.537292,463.235107 
	C542.285767,463.127869 538.942871,463.955383 535.255005,462.304688 
	C537.632019,453.903412 541.519958,446.213959 544.868042,437.918243 
M560.852417,431.560577 
	C560.050171,433.568787 559.203064,435.560486 558.456665,437.589264 
	C557.442749,440.345154 558.468384,441.787933 561.395691,441.716064 
	C563.961243,441.653107 566.666809,442.333740 569.363525,440.537537 
	C567.822937,436.075653 566.887451,431.562653 563.825989,427.874634 
	C562.127991,428.449799 561.767639,429.798431 560.852417,431.560577 
z"/>
<path fill="#000000" opacity="1.000000" stroke="none" 
	d="
M443.409607,457.326416 
	C440.523285,463.872101 436.702545,465.086670 428.601288,462.295227 
	C427.892059,459.817261 429.395844,457.811218 430.251831,455.731384 
	C436.015106,441.727478 442.031281,427.825043 447.598083,413.744446 
	C449.272491,409.509125 451.839111,408.571838 455.969574,408.574402 
	C460.170441,408.577026 463.081970,409.152740 464.889038,413.700500 
	C470.664215,428.234619 476.931152,442.572693 482.922119,457.022156 
	C485.321472,462.809113 484.906921,463.050262 478.891113,463.416779 
	C473.741791,463.730530 470.224915,462.542877 469.082245,456.917358 
	C468.536743,454.231873 466.591675,452.835907 463.569305,452.938721 
	C458.912109,453.097137 454.243103,453.044586 449.582855,452.929718 
	C446.534515,452.854584 444.429169,453.917847 443.409607,457.326416 
M452.925934,433.356689 
	C452.238831,435.797668 449.457367,438.734039 451.650848,440.604645 
	C454.413727,442.960815 458.362549,442.036896 462.124878,440.861755 
	C460.874023,435.826233 459.345764,431.262787 456.446716,427.029785 
	C454.487427,428.633942 454.048523,430.777039 452.925934,433.356689 
z"/>
<path fill="#000000" opacity="1.000000" stroke="none" 
	d="
M614.327271,416.349396 
	C617.051086,409.042450 621.733704,406.699860 628.609314,408.810791 
	C630.492798,409.389069 631.118530,410.929474 631.745178,412.425201 
	C638.176086,427.776398 644.512939,443.167175 650.985413,458.500732 
	C652.482727,462.047943 651.524109,463.208038 647.763245,463.420380 
	C642.335815,463.726868 637.753967,463.270325 636.460876,456.723236 
	C636.179321,455.297760 635.431763,453.729767 633.807434,453.321564 
	C627.036560,451.620056 620.245239,452.802765 613.478516,453.447998 
	C612.282349,453.562073 611.865723,454.996246 611.349670,456.048706 
	C607.463684,463.973267 605.066284,464.981995 595.488770,462.157410 
	C601.037964,446.686951 607.534912,431.666931 614.327271,416.349396 
M622.209229,429.062042 
	C620.476440,432.889557 618.267700,436.568146 618.049377,441.147491 
	C622.124268,441.951294 625.755005,442.357544 629.984314,440.632446 
	C628.341919,436.596954 626.852661,432.800049 625.241333,429.055725 
	C624.704163,427.807526 623.740173,427.273529 622.209229,429.062042 
z"/>
<path fill="#000000" opacity="1.000000" stroke="none" 
	d="
M509.403503,445.170410 
	C505.989929,445.006775 504.708374,446.662903 504.588165,449.385834 
	C504.471008,452.039734 504.218811,454.734955 504.536926,457.349854 
	C505.034576,461.440063 504.176727,463.585175 499.395996,463.438873 
	C492.199554,463.218597 491.771881,463.213776 491.750885,457.576294 
	C491.696991,443.109863 491.830933,428.641846 491.655304,414.177338 
	C491.606445,410.153687 492.812500,408.463837 497.036560,408.615601 
	C504.177673,408.872162 511.336578,408.584656 518.484070,408.726013 
	C528.974792,408.933533 536.144653,415.564087 536.746094,425.393311 
	C537.374268,435.658447 531.650208,442.664551 521.277222,444.611115 
	C517.463623,445.326691 513.658936,445.077820 509.403503,445.170410 
M520.378357,420.922638 
	C517.151367,419.142609 513.614441,419.543671 510.131073,419.341156 
	C506.636169,419.137970 505.100494,420.283844 504.736908,424.001709 
	C503.850342,433.066956 504.634827,434.114288 513.838745,433.915588 
	C514.505005,433.901184 515.171753,433.894531 515.837524,433.867157 
	C519.074890,433.734070 521.674805,432.561890 523.008057,429.390228 
	C524.340027,426.221741 523.639587,423.540100 520.378357,420.922638 
z"/>
<path fill="#000000" opacity="1.000000" stroke="none" 
	d="
M328.647034,436.302429 
	C325.031036,427.336914 321.555511,418.731201 318.090881,410.152557 
	C326.189697,406.383057 331.314697,408.297668 334.296967,415.822174 
	C338.013458,425.199280 341.763611,434.562988 345.676025,444.375824 
	C348.213440,442.313751 348.544617,439.891510 349.399170,437.854370 
	C352.425293,430.640472 355.278870,423.353882 358.171234,416.084259 
	C361.321991,408.165161 364.829437,406.685608 373.440247,409.716736 
	C374.103241,411.290894 373.198395,412.602020 372.652924,413.959717 
	C366.757355,428.634216 360.727600,443.256683 355.026215,458.006104 
	C353.462921,462.050293 351.275055,463.706421 346.900482,463.472900 
	C342.598785,463.243317 338.970978,463.466400 337.271606,457.998779 
	C335.006714,450.711578 331.666046,443.758728 328.647034,436.302429 
z"/>
<path fill="#000000" opacity="1.000000" stroke="none" 
	d="
M399.585724,443.841431 
	C394.869049,434.193085 388.646973,425.952759 382.902954,417.405914 
	C381.271851,414.978912 379.252472,412.755890 378.379181,409.849579 
	C387.307922,406.645111 392.128723,408.337860 396.803131,415.819153 
	C399.675964,420.416992 402.310669,425.215820 406.584259,429.876099 
	C409.927795,424.848022 412.944122,420.353638 415.917664,415.831146 
	C421.051697,408.022675 423.446930,407.122833 433.178680,409.445801 
	C434.049286,411.171021 432.689697,412.258118 431.924408,413.441864 
	C428.042114,419.446777 424.674011,425.910126 420.037292,431.271515 
	C413.232208,439.140228 412.098724,448.210175 412.634094,457.775879 
	C412.893188,462.405396 411.194183,463.637634 406.964508,463.437225 
	C403.011230,463.249908 399.112091,463.835236 399.645050,457.723602 
	C400.033508,453.268585 399.664490,448.747559 399.585724,443.841431 
z"/>
<path fill="#000000" opacity="1.000000" stroke="none" 
	d="
M483.294434,507.374420 
	C479.853851,507.300201 477.197449,507.252838 477.173798,511.596191 
	C477.149933,515.980469 479.841431,515.816772 482.801178,515.798950 
	C487.293579,515.771973 491.790375,515.936279 496.277802,515.789551 
	C500.053192,515.666199 501.160889,517.503967 501.168427,520.980774 
	C501.176483,524.693481 499.176422,525.381042 496.067017,525.348145 
	C487.748169,525.260132 479.425781,525.203491 471.109131,525.362549 
	C467.549530,525.430603 465.942719,524.257080 465.974182,520.520996 
	C466.072235,508.874512 466.036102,497.225677 465.912537,485.579254 
	C465.873352,481.882141 467.477203,480.620697 471.049286,480.688141 
	C479.199738,480.842041 487.355865,480.810669 495.507904,480.709595 
	C498.756470,480.669373 500.359161,481.657532 500.406982,485.252289 
	C500.457245,489.032043 498.850006,490.282043 495.334106,490.193542 
	C490.844696,490.080566 486.348175,490.267548 481.857605,490.178833 
	C478.813171,490.118683 477.194366,491.138885 477.251465,494.479492 
	C477.310913,497.959106 479.576935,497.988922 482.017029,497.996704 
	C485.677521,498.008331 489.338257,498.049286 492.998413,498.018616 
	C496.575745,497.988617 497.348511,500.007965 497.361511,503.178314 
	C497.375427,506.578369 495.763580,507.505157 492.738281,507.384125 
	C489.748138,507.264557 486.749115,507.367279 483.294434,507.374420 
z"/>
<path fill="#000000" opacity="1.000000" stroke="none" 
	d="
M608.268433,485.205933 
	C608.281799,492.006195 608.135315,498.333893 608.321899,504.651764 
	C608.820740,521.541321 597.768250,527.743530 583.006958,525.965515 
	C572.464478,524.695740 566.993652,518.809692 566.308411,508.117493 
	C565.819763,500.493073 566.183594,492.816528 566.067871,485.164734 
	C566.000488,480.709015 568.898987,480.758667 572.117432,480.687744 
	C575.599121,480.611053 577.368103,481.681915 577.277405,485.507660 
	C577.111938,492.492126 577.174133,499.485443 577.296997,506.472321 
	C577.406677,512.710266 580.775330,516.319031 586.557678,516.706238 
	C592.754028,517.121277 596.899475,514.051514 597.333862,507.636200 
	C597.815857,500.518646 597.499084,493.340485 597.370361,486.191589 
	C597.324524,483.647217 596.555603,480.683838 600.447266,480.880066 
	C603.432373,481.030609 608.042480,478.687164 608.268433,485.205933 
z"/>
<path fill="#000000" opacity="1.000000" stroke="none" 
	d="
M434.726685,508.275696 
	C430.550568,506.966675 426.599304,506.267700 423.017700,504.354279 
	C418.750549,502.074677 416.707550,498.523438 416.745514,493.807465 
	C416.784210,489.001770 418.506897,485.103546 423.078796,482.776703 
	C430.779694,478.857422 438.564728,479.810577 446.392822,482.168793 
	C449.289062,483.041260 449.091705,485.086456 448.190704,487.354797 
	C447.347778,489.477051 447.026581,492.192749 443.602539,491.198334 
	C440.246552,490.223724 436.918732,488.995270 433.342407,489.463135 
	C431.145264,489.750549 428.803436,490.360779 428.425659,492.919586 
	C428.011139,495.727417 430.413910,496.513763 432.503937,497.110016 
	C436.980438,498.387146 441.582855,499.251831 445.699371,501.598145 
	C453.954773,506.303497 454.359924,518.441895 446.095886,523.052185 
	C437.221893,528.002808 427.888580,526.923706 419.216125,522.624023 
	C414.578278,520.324646 418.392639,516.701050 419.334290,513.303162 
	C422.637634,514.333740 425.588684,515.365845 428.604248,516.149658 
	C430.191071,516.562195 431.892426,516.698059 433.539032,516.680237 
	C436.394836,516.649414 439.816833,516.596313 440.436859,513.171387 
	C441.084656,509.592682 437.420563,509.430450 434.726685,508.275696 
z"/>
<path fill="#000000" opacity="1.000000" stroke="none" 
	d="
M544.119019,490.171753 
	C539.632141,489.666443 538.011047,491.281006 538.128845,495.486847 
	C538.356995,503.633850 538.033142,511.795197 538.185303,519.945923 
	C538.262695,524.090210 536.574097,525.396301 532.519409,525.398804 
	C528.429077,525.401367 526.892273,524.062988 527.004517,519.915466 
	C527.211670,512.267151 527.011963,504.607666 526.969421,496.952850 
	C526.932312,490.270782 526.834961,490.176849 520.380554,490.129150 
	C519.382141,490.121796 518.382080,490.089325 517.385498,490.131805 
	C514.100891,490.271759 512.594299,488.956482 512.597717,485.435364 
	C512.601013,481.994446 513.857239,480.668488 517.278381,480.707306 
	C527.428223,480.822510 537.581055,480.837311 547.730713,480.721191 
	C551.230896,480.681122 552.970276,481.847595 553.006897,485.562103 
	C553.045837,489.511749 550.847168,490.359344 547.566711,490.188751 
	C546.570862,490.136932 545.570251,490.176666 544.119019,490.171753 
z"/>
</svg>